<?xml version="1.0" encoding="utf-8"?>
<!-- Generator: Adobe Illustrator 22.1.0, SVG Export Plug-In . SVG Version: 6.00 Build 0)  -->
<svg version="1.1" id="レイヤー_1" xmlns="http://www.w3.org/2000/svg" xmlns:xlink="http://www.w3.org/1999/xlink" x="0px"
	 y="0px" viewBox="0 0 60 60" style="enable-background:new 0 0 60 60;" xml:space="preserve">
<style type="text/css">
	.st0{fill:#FFFFFF;}
	.st1{fill:#BB0000;}
</style>
<circle class="st0" cx="30" cy="30" r="30"/>
<g>
	<title></title>
	<g id="svg_1" transform="translate(0,1024) scale(0.10000000149011612,-0.10000000149011612) ">
		<path id="svg_2" class="st1" d="M279.6,10239.3c-99.2-6.6-189.7-63.1-239.5-149.6C4.4,10028-8.1,9954.4,5.2,9884.7
			c16.3-86.3,69.3-160.9,145.1-204.6c61.7-35.7,135.3-48.2,205.1-34.9c47.9,9.1,92,29,130,59c57.3,45.1,96,108.8,109.5,180.5
			c6.8,35.8,6.8,74.8,0,110.6c-16.3,86.3-69.3,160.9-145.1,204.6C398.5,10229.5,339,10243.3,279.6,10239.3z M219.7,10127.2
			c4.4-16.1,8.1-29.7,8.3-30.1c0.3-0.4,3.7,11.7,7.7,27c3.9,15.4,7.4,28.9,7.7,30.1l0.6,2.2h11.8h11.8l-0.5-1.9
			c-0.2-1.1-6.5-21.9-13.9-46.2l-13.4-44.3v-31.6v-31.6h-11.8h-11.8v32v31.9l-2.8,10.9c-2.8,10.9-10.3,34.2-20.7,64
			c-3.1,8.9-5.6,16.2-5.6,16.5c0,0.1,5.5,0.3,12.3,0.3h12.3L219.7,10127.2z M310.2,10116.3c5.3-1.8,9.5-5,13.1-9.8
			c6.3-8.6,7.5-18.7,7-54.8c-0.4-25.4-1-29.9-4.4-36.9c-4-8.2-12.9-14.3-22.2-15.2c-10.9-1.1-18.8,1.2-25.4,7.5
			c-4.7,4.5-7.6,10.1-9.1,17.8c-1.5,8.1-1.1,65.7,0.6,71c3.6,11.8,12.6,20.1,23.6,21.8C298.2,10118.5,305.7,10117.8,310.2,10116.3z
			 M368.5,10070.3c0-39,0.1-47.1,1-49.1c2-4.7,7.3-3.8,13.3,2.2l3.7,3.8l0.1,44.7l0.2,44.7l10.6,0.2l10.5,0.2v-58.2v-58.1h-10.7
			h-10.7v6v5.9l-3.9-3.8c-7.4-7.1-12.8-9.6-20-9.6c-7.5,0-11.5,2.9-13.9,10c-1,3.2-1.2,8.5-1.5,54.7c-0.1,28.1-0.1,51.5,0.1,52
			c0.3,0.8,2.6,1,10.8,1h10.4V10070.3z M380.9,9978.7c28.4-1.2,49.5-2.8,56.4-4.2c1.9-0.4,6.1-2,9.3-3.5c4.8-2.3,6.9-3.9,11.5-8.5
			c10.2-10.3,13.4-20.5,16.2-52.2c2-23.2,1.9-80.6-0.4-103.7c-2.8-30.1-5.7-38.7-16.2-49.1c-9.6-9.5-15.2-11.7-35.3-13.4
			c-34.4-3-75.8-4.1-137.3-3.7c-70.5,0.6-109.3,2.9-120.2,7c-11.4,4.4-21.1,13.9-25.2,25c-5.3,13.9-7.7,42.2-7.7,87.4
			c0,37.8,1.4,58.5,5,77.2c1.7,8.7,3.2,12.7,7.3,19c5.2,8,12.4,13.6,21.4,16.9c8.9,3.2,44.5,5.7,94.9,6.7
			C281.1,9980.1,364.3,9979.4,380.9,9978.7z"/>
		<path id="svg_3" class="st1" d="M294.1,10097.7c-1.2-0.8-2.7-2.6-3.5-4.3c-1.2-2.8-1.3-5.3-1.5-32.6c-0.2-33.2,0.1-36.4,4-40
			c4.6-4.3,10.8-2.8,13.8,3.2l1.7,3.5v31.5v31.5l-1.7,3.3c-0.9,1.9-2.4,3.7-3.6,4.3C300.7,10099.5,296.6,10099.3,294.1,10097.7z"/>
		<path id="svg_4" class="st1" d="M157.6,9928.6v-10.7h12.1h12.1v-66v-66h11.8h11.8v66v66h12.4h12.4v10.7v10.7h-36.3h-36.3V9928.6z"
			/>
		<path id="svg_5" class="st1" d="M311.1,9862.6v-76.8h10h10v5.2c0,2.8,0.2,5.2,0.4,5.2c0.3,0,2.6-2,5.1-4.4
			c5.6-5.3,10.3-7.3,16.8-7.3c9.5,0.1,15.1,5.7,17,17.3c1,6,1,76.3,0,82.2c-2.1,12.9-9.9,19.5-21,17.4c-5.3-1-8.6-2.8-13.9-7.7
			l-4.5-4.2v25v25h-10h-10V9862.6z M346.5,9881.7c0.7-0.5,2-2.2,2.8-3.9c1.5-3,1.5-3.7,1.7-32.6c0.3-33.5-0.1-36.5-4.1-40.2
			c-1.9-1.7-2.5-1.9-5.9-1.7c-2.6,0.2-4.6,0.9-6.6,2.4l-2.9,2.1l-0.2,35l-0.1,35.1l2.4,1.9C338,9883.2,342.8,9883.9,346.5,9881.7z"
			/>
		<path id="svg_6" class="st1" d="M412.9,9901.2c-7.7-1.3-15.2-6.4-19.4-12.9c-1.2-1.9-2.8-5.8-3.7-8.9c-1.5-5.3-1.5-6.6-1.6-35.9
			c0-21.4,0.3-31.5,0.8-34c1.7-7.2,3.7-11.3,7.5-15.5c6.5-7,12.9-9.7,23-9.7c10.2,0,16.2,2.4,21.9,8.4c6.4,6.8,8.6,13.1,8.6,24.9
			v7.5h-10.3h-10.2l-0.5-7.3c-0.8-11.4-2.9-14.8-9.5-14.8c-4.5,0-7.1,1.6-9.1,5.5c-1.4,2.8-1.5,4.3-1.7,16.8l-0.3,13.6h20.8h20.8
			v15.3c0,21.5-1.4,28.8-6.9,36.3C436.9,9898.9,424.5,9903.3,412.9,9901.2z M424.5,9881.3c3.7-2.7,4.5-5.2,4.7-15.4l0.3-9.5H419
			h-10.4v7.3c0,8.8,1,13.6,3.2,16.2C414.8,9883.4,420.7,9884.1,424.5,9881.3z"/>
		<path id="svg_7" class="st1" d="M232.9,9852.4c0-27,0.3-50.5,0.7-53.5c1.4-10.8,5.7-14.8,15.2-14.4c6.6,0.3,11.5,2.6,18,8.6
			c2.6,2.4,4.9,4.4,5.1,4.4c0.2,0,0.4-2.6,0.4-5.9v-5.9h10h10v57.4v57.4h-10h-10v-44v-43.9l-3.6-3.9c-2-2.1-4.5-4.2-5.5-4.8
			c-2-1-5.9-1.2-7.3-0.4c-2.1,1.3-2.3,4.8-2.3,50.7v46.3h-10.4h-10.4V9852.4z"/>
	</g>
</g>
</svg>
